<!-- src/assets/icons/ServiceIcon1.svg -->
<svg preserveAspectRatio="xMidYMid meet" data-bbox="20 34.606 159.999 126.634" viewBox="20 34.606 159.999 126.634" xmlns="http://www.w3.org/2000/svg">
  <defs>
    <style>
      #comp-kq9ag33l svg [data-color="1"] {fill: #16163F;}
      #comp-kq9ag33l svg [data-color="2"] {fill: #DDBBFF;}
      #comp-kq9ag33l svg [data-color="3"] {fill: #9E3FFD;}
    </style>
  </defs>
  <g>
    <path clip-rule="evenodd" fill-rule="evenodd" d="M60.163 40.369a5.763 5.763 0 1 1-11.526 0 5.763 5.763 0 0 1 11.526 0z" fill="#000000" data-color="1"></path>
    <path d="M37.029 103.69l40.464 40.531a9.606 9.606 0 0 1 0 13.572l-.627.628a9.604 9.604 0 0 1-13.583.011l-.011-.011-40.465-40.531a9.606 9.606 0 0 1 0-13.572l.627-.628a9.604 9.604 0 0 1 13.583-.011c.005.003.008.007.012.011z" fill="#E7E7EB" clip-rule="evenodd" fill-rule="evenodd" data-color="2"></path>
    <path d="M62.556 144.076L162.971 43.492a9.604 9.604 0 0 1 13.583-.011l.011.011.627.628a9.606 9.606 0 0 1 0 13.572L76.777 158.276a9.604 9.604 0 0 1-13.583.011l-.011-.011-.627-.628a9.604 9.604 0 0 1 0-13.572z" fill="#9E3FFD" clip-rule="evenodd" fill-rule="evenodd" data-color="3"></path>
  </g>
</svg>